<svg xmlns="http://www.w3.org/2000/svg" version="1.1" xmlns:xlink="http://www.w3.org/1999/xlink" xmlns:svgjs="http://svgjs.dev/svgjs" width="1500" height="1500" viewBox="0 0 1500 1500"><g transform="matrix(1,0,0,1,-0.21332335329316265,-0.21332335329350371)"><svg viewBox="0 0 334 334" data-background-color="#dfd5cb" preserveAspectRatio="xMidYMid meet" height="1500" width="1500" xmlns="http://www.w3.org/2000/svg" xmlns:xlink="http://www.w3.org/1999/xlink"><g id="tight-bounds" transform="matrix(1,0,0,1,0.04749999999998522,0.04750000000001364)"><svg viewBox="0 0 333.90454557049503 333.90454557049503" height="333.90454557049503" width="333.90454557049503"><g><svg></svg></g><g><svg viewBox="0 0 333.90454557049503 333.90454557049503" height="333.90454557049503" width="333.90454557049503"><g><path d="M0 166.952c0-92.205 74.747-166.952 166.952-166.952 92.205 0 166.952 74.747 166.953 166.952 0 92.205-74.747 166.952-166.953 166.953-92.205 0-166.952-74.747-166.952-166.953zM166.952 323.626c86.528 0 156.673-70.145 156.674-156.674 0-86.528-70.145-156.673-156.674-156.673-86.528 0-156.673 70.145-156.673 156.673 0 86.528 70.145 156.673 156.673 156.674z" data-fill-palette-color="tertiary" fill="#ff5e48" stroke="transparent"></path><ellipse rx="160.27418187383762" ry="160.27418187383762" cx="166.95227278524752" cy="166.95227278524752" fill="#ff5e48" stroke="transparent" stroke-width="0" fill-opacity="1" data-fill-palette-color="tertiary"></ellipse></g><g transform="matrix(1,0,0,1,123.89078373362338,71.17305217166896)"><svg viewBox="0 0 86.12297810324829 191.55844122715712" height="191.55844122715712" width="86.12297810324829"><g><svg viewBox="0 0 86.12297810324829 191.55844122715712" height="191.55844122715712" width="86.12297810324829"><g><svg viewBox="0 0 144.73984456940147 321.9366029811016" height="191.55844122715712" width="86.12297810324829"><g transform="matrix(1,0,0,1,0,130.37816175394445)"><svg viewBox="0 0 144.73984456940147 191.55844122715712" height="191.55844122715712" width="144.73984456940147"><g id="textblocktransform"><svg viewBox="0 0 144.73984456940147 191.55844122715712" height="191.55844122715712" width="144.73984456940147" id="textblock"><g><svg viewBox="0 0 144.73984456940147 191.55844122715712" height="191.55844122715712" width="144.73984456940147"><g transform="matrix(1,0,0,1,0,0)"><svg width="144.73984456940147" viewBox="4.4 -30.65 23.65 31.3" height="191.55844122715712" data-palette-color="#dfd5cb"><path d="M16.2 0.65L16.2 0.65Q12.45 0.65 9.8-0.73 7.15-2.1 5.78-4.63 4.4-7.15 4.4-10.5L4.4-10.5 4.4-14.6 8.45-14.6 8.45-10.85Q8.45-6.85 10.68-4.83 12.9-2.8 16.2-2.8L16.2-2.8Q19.5-2.8 21.73-4.83 23.95-6.85 23.95-10.85L23.95-10.85 23.95-14.6 28.05-14.6 28.05-10.5Q28.05-7.15 26.68-4.63 25.3-2.1 22.65-0.73 20 0.65 16.2 0.65ZM8.45-28.8L8.45-12.55 4.4-12.55 4.4-30.3Q4.65-30.4 5.18-30.53 5.7-30.65 6.3-30.65L6.3-30.65Q7.4-30.65 7.93-30.23 8.45-29.8 8.45-28.8L8.45-28.8ZM28.05-28.8L28.05-12.55 23.95-12.55 23.95-30.3Q24.2-30.4 24.73-30.53 25.25-30.65 25.85-30.65L25.85-30.65Q26.95-30.65 27.5-30.23 28.05-29.8 28.05-28.8L28.05-28.8Z" opacity="1" transform="matrix(1,0,0,1,0,0)" fill="#dfd5cb" class="wordmark-text-0" data-fill-palette-color="quaternary" id="text-0"></path></svg></g></svg></g></svg></g></svg></g><g transform="matrix(1,0,0,1,27.645310312755683,0)"><svg viewBox="0 0 89.4492239438901 85.15581118280211" height="85.15581118280211" width="89.4492239438901"><g><svg xmlns="http://www.w3.org/2000/svg" xmlns:xlink="http://www.w3.org/1999/xlink" version="1.1" x="0" y="0" viewBox="0 0 47.71 45.42" enable-background="new 0 0 47.71 45.41" xml:space="preserve" id="icon-0" width="89.4492239438901" height="85.15581118280211" class="icon-icon-0" data-fill-palette-color="quaternary"><path fill="#dfd5cb" d="M47.71 8.71L39.71 0.71 39 0 38.29 0.71 30.29 8.71 31.7 10.12 38 3.83V25.42C38 35.34 29.93 43.42 20 43.42S2 35.34 2 25.42V1.42C2 0.87 1.55 0.42 1 0.42S0 0.87 0 1.42V25.42C0 36.45 8.97 45.42 20 45.42S40 36.45 40 25.42V3.83L46.29 10.12z" data-fill-palette-color="quaternary"></path></svg></g></svg></g><g></g></svg></g></svg></g></svg></g></svg></g><defs></defs></svg><rect width="333.90454557049503" height="333.90454557049503" fill="none" stroke="none" visibility="hidden"></rect></g></svg></g></svg>