<svg width="304" height="304" viewBox="0 0 304 304" fill="none" xmlns="http://www.w3.org/2000/svg">
<g clip-path="url(#clip0_4_3)">
<g clip-path="url(#clip1_4_3)">
<g clip-path="url(#clip2_4_3)">
<path d="M0.0432434 152C0.0432434 68.0764 68.0764 0.0432434 152 0.0432434C235.923 0.0432434 303.956 68.0764 303.957 152C303.957 235.923 235.924 303.956 152 303.957C68.0764 303.957 0.0432434 235.924 0.0432434 152ZM152 288.233C227.24 288.233 288.232 227.24 288.233 152C288.233 76.7595 227.24 15.7666 152 15.7666C76.7595 15.7666 15.7666 76.7605 15.7666 152C15.7666 227.24 76.7605 288.232 152 288.233Z" fill="#FF5E48"/>
<path d="M152 297.878C232.566 297.878 297.878 232.566 297.878 152C297.878 71.4334 232.566 6.12151 152 6.12151C71.4334 6.12151 6.12151 71.4334 6.12151 152C6.12151 232.566 71.4334 297.878 152 297.878Z" fill="#FF5E48"/>
<g clip-path="url(#clip3_4_3)">
<g clip-path="url(#clip4_4_3)">
<g clip-path="url(#clip5_4_3)">
<g clip-path="url(#clip6_4_3)">
<g clip-path="url(#clip7_4_3)">
<g clip-path="url(#clip8_4_3)">
<path d="M151.976 239.176C137.339 239.176 124.854 237.263 114.522 233.436C104.222 229.609 96.3616 222.913 90.9405 213.346C85.5194 203.779 82.8089 190.354 82.8089 173.07V87.5922C82.8089 85.3281 83.2075 83.6061 84.0047 82.4262C87.5125 77.2921 92.4074 71.8869 98.6895 66.2107C99.8694 65.2859 100.89 64.8235 101.751 64.8235C102.676 64.8235 103.648 65.2859 104.669 66.2107C108.081 69.1763 110.967 71.9985 113.327 74.6772C115.654 77.3558 117.663 79.9388 119.354 82.4262C120.151 83.6698 120.549 85.3918 120.549 87.5922V167.235C120.549 178.364 121.729 186.83 124.089 192.634C126.481 198.438 130.004 202.376 134.66 204.449C139.348 206.554 145.12 207.606 151.976 207.606C158.96 207.606 164.795 206.554 169.483 204.449C174.139 202.376 177.646 198.438 180.006 192.634C182.334 186.83 183.498 178.364 183.498 167.235V87.5922C183.498 85.3281 183.881 83.6061 184.646 82.4262C188.154 77.2921 193.065 71.8869 199.379 66.2107C200.527 65.2859 201.531 64.8235 202.392 64.8235C203.349 64.8235 204.322 65.2859 205.31 66.2107C208.754 69.1763 211.64 71.9985 213.968 74.6772C216.296 77.3558 218.321 79.9388 220.043 82.4262C220.808 83.6698 221.191 85.3918 221.191 87.5922V173.07C221.191 190.354 218.241 203.779 212.342 213.346C206.41 222.913 198.247 229.609 187.851 233.436C177.455 237.263 165.497 239.176 151.976 239.176Z" fill="white"/>
</g>
</g>
</g>
</g>
</g>
</g>
</g>
</g>
</g>
<defs>
<clipPath id="clip0_4_3">
<rect width="304" height="304" fill="white"/>
</clipPath>
<clipPath id="clip1_4_3">
<rect width="303.913" height="303.913" fill="white" transform="translate(0.0432434 0.0432434)"/>
</clipPath>
<clipPath id="clip2_4_3">
<rect width="303.913" height="303.913" fill="white" transform="translate(0.0432434 0.0432434)"/>
</clipPath>
<clipPath id="clip3_4_3">
<rect width="138.384" height="174.353" fill="white" transform="translate(82.8076 64.8235)"/>
</clipPath>
<clipPath id="clip4_4_3">
<rect width="138.384" height="174.353" fill="white" transform="translate(82.8076 64.8235)"/>
</clipPath>
<clipPath id="clip5_4_3">
<rect width="138.384" height="174.353" fill="white" transform="translate(82.8076 64.8235)"/>
</clipPath>
<clipPath id="clip6_4_3">
<rect width="138.384" height="174.353" fill="white" transform="translate(82.8076 64.8235)"/>
</clipPath>
<clipPath id="clip7_4_3">
<rect width="138.384" height="174.353" fill="white" transform="translate(82.8076 64.8235)"/>
</clipPath>
<clipPath id="clip8_4_3">
<rect width="138.384" height="174.353" fill="white" transform="translate(82.8076 64.8235)"/>
</clipPath>
</defs>
</svg>
