<svg width="304" height="304" viewBox="0 0 304 304" fill="none" xmlns="http://www.w3.org/2000/svg">
<g clip-path="url(#clip0_3_37)">
<g clip-path="url(#clip1_3_37)">
<g clip-path="url(#clip2_3_37)">
<g clip-path="url(#clip3_3_37)">
<path d="M1.52588e-05 151.956C1.52588e-05 68.0332 68.0332 1.52588e-05 151.956 1.52588e-05C235.879 1.52588e-05 303.913 68.0332 303.914 151.956C303.914 235.879 235.88 303.913 151.956 303.914C68.0332 303.914 1.52588e-05 235.88 1.52588e-05 151.956ZM151.956 294.558C230.712 294.558 294.557 230.713 294.558 151.956C294.558 73.2003 230.713 9.35575 151.956 9.35575C73.2003 9.35575 9.35575 73.2003 9.35575 151.956C9.35575 230.712 73.2003 294.557 151.956 294.558Z" fill="#FF5E48"/>
<path d="M151.957 297.835C232.523 297.835 297.835 232.523 297.835 151.957C297.835 71.3902 232.523 6.07828 151.957 6.07828C71.3902 6.07828 6.07828 71.3902 6.07828 151.957C6.07828 232.523 71.3902 297.835 151.957 297.835Z" fill="#FF5E48"/>
<g clip-path="url(#clip4_3_37)">
<g clip-path="url(#clip5_3_37)">
<g clip-path="url(#clip6_3_37)">
<g clip-path="url(#clip7_3_37)">
<g clip-path="url(#clip8_3_37)">
<g clip-path="url(#clip9_3_37)">
<g clip-path="url(#clip10_3_37)">
<path d="M151.874 239.133C143.588 239.133 136.517 237.608 130.661 234.559C124.805 231.532 120.364 227.223 117.337 221.632C114.288 216.064 112.763 209.579 112.763 202.176V188.587H126.187V201.016C126.187 209.855 128.65 216.506 133.578 220.97C138.483 225.455 144.582 227.698 151.874 227.698C159.166 227.698 165.275 225.455 170.203 220.97C175.108 216.506 177.561 209.855 177.561 201.016V188.587H191.15V202.176C191.15 209.579 189.637 216.064 186.609 221.632C183.56 227.223 179.108 231.532 173.252 234.559C167.397 237.608 160.27 239.133 151.874 239.133ZM126.187 141.522V195.382H112.763V136.55C113.315 136.329 114.177 136.075 115.348 135.787C116.497 135.522 117.735 135.39 119.06 135.39C121.491 135.39 123.292 135.854 124.463 136.782C125.612 137.732 126.187 139.312 126.187 141.522ZM191.15 141.522V195.382H177.561V136.55C178.113 136.329 178.975 136.075 180.146 135.787C181.295 135.522 182.533 135.39 183.858 135.39C186.289 135.39 188.112 135.854 189.327 136.782C190.543 137.732 191.15 139.312 191.15 141.522Z" fill="#DFD5CB"/>
</g>
</g>
</g>
</g>
<g clip-path="url(#clip11_3_37)">
<g clip-path="url(#clip12_3_37)">
<path d="M176.178 73.6242L168.055 65.5012L167.334 64.7803L166.613 65.5012L158.49 73.6242L159.922 75.0558L166.319 68.6691V90.591C166.319 100.664 158.125 108.868 148.042 108.868C137.96 108.868 129.766 100.664 129.766 90.591V66.2221C129.766 65.6636 129.309 65.2067 128.75 65.2067C128.192 65.2067 127.735 65.6636 127.735 66.2221V90.591C127.735 101.791 136.843 110.898 148.042 110.898C159.242 110.898 168.35 101.791 168.35 90.591V68.6691L174.736 75.0558L176.178 73.6242Z" fill="#DFD5CB"/>
</g>
</g>
</g>
</g>
</g>
</g>
</g>
</g>
</g>
<defs>
<clipPath id="clip0_3_37">
<rect width="304" height="304" fill="white"/>
</clipPath>
<clipPath id="clip1_3_37">
<rect width="304" height="304" fill="white" transform="translate(-0.0432281 -0.0432281)"/>
</clipPath>
<clipPath id="clip2_3_37">
<rect width="303.913" height="303.913" fill="white"/>
</clipPath>
<clipPath id="clip3_3_37">
<rect width="303.913" height="303.913" fill="white"/>
</clipPath>
<clipPath id="clip4_3_37">
<rect width="78.3874" height="174.353" fill="white" transform="translate(112.763 64.7803)"/>
</clipPath>
<clipPath id="clip5_3_37">
<rect width="78.3874" height="174.353" fill="white" transform="translate(112.763 64.7803)"/>
</clipPath>
<clipPath id="clip6_3_37">
<rect width="78.3874" height="174.353" fill="white" transform="translate(112.763 64.7803)"/>
</clipPath>
<clipPath id="clip7_3_37">
<rect width="78.3874" height="103.743" fill="white" transform="translate(112.763 135.39)"/>
</clipPath>
<clipPath id="clip8_3_37">
<rect width="78.3874" height="103.743" fill="white" transform="translate(112.763 135.39)"/>
</clipPath>
<clipPath id="clip9_3_37">
<rect width="78.3874" height="103.743" fill="white" transform="translate(112.763 135.39)"/>
</clipPath>
<clipPath id="clip10_3_37">
<rect width="78.3874" height="103.743" fill="white" transform="translate(112.763 135.39)"/>
</clipPath>
<clipPath id="clip11_3_37">
<rect width="48.4434" height="46.1182" fill="white" transform="translate(127.735 64.7803)"/>
</clipPath>
<clipPath id="clip12_3_37">
<rect width="48.4434" height="46.1182" fill="white" transform="translate(127.735 64.7803)"/>
</clipPath>
</defs>
</svg>
